<?xml version="1.0" encoding="UTF-8" standalone="no"?>
<!DOCTYPE svg PUBLIC "-//W3C//DTD SVG 1.1//EN" "http://www.w3.org/Graphics/SVG/1.1/DTD/svg11.dtd">
<svg width="100%" height="100%" viewBox="0 0 3000 1461" version="1.1" xmlns="http://www.w3.org/2000/svg" xmlns:xlink="http://www.w3.org/1999/xlink" xml:space="preserve" xmlns:serif="http://www.serif.com/" style="fill-rule:evenodd;clip-rule:evenodd;stroke-linejoin:round;stroke-miterlimit:1.41421;">
    <path id="path3" d="M120.88,432.659C65.17,432.659 20,477.739 20,533.359L20,1338.96C20,1394.58 65.17,1439.66 120.88,1439.66L2019.12,1439.66C2074.83,1439.66 2120,1394.58 2120,1338.96L2120,533.359C2120,477.739 2074.83,432.659 2019.12,432.659L120.88,432.659Z" style="fill:white;"/>
    <g id="g4211" transform="matrix(1.40952,0,0,1.40952,20,19.8013)">
        <g id="g5">
            <path id="background_1_" d="M2100,920.291L2100,86.771C2094.32,42.391 2059.72,7.042 2015.66,0.141L85.16,0.141C36.91,7.701 0,49.371 0,99.661L0,907.4C0,963.041 45.19,1008.14 100.93,1008.14L1999.9,1008.14C2051.26,1008.14 2093.66,969.841 2100,920.291Z" style="fill:url(#_Radial1);"/>
            <rect id="highlight_1_" x="90" y="0.5" width="1920" height="352.641" style="fill:url(#_Radial2);"/>
        </g>
        <g id="g24">
            <g id="g26">
                <rect id="rect28" x="290" y="199.141" width="158.72" height="611"/>
                <path id="path32" d="M448.72,199.141L448.72,810.141L290,810.141L290,199.141L448.72,199.141M462.72,185.141L448.72,185.141L290,185.141L276,185.141L276,824.141L462.72,824.141L462.72,810.141L462.72,199.141L462.72,185.141Z" style="fill:rgb(251,251,237);fill-opacity:0.3;fill-rule:nonzero;"/>
            </g>
            <g id="g34">
                <path id="path36" d="M787.22,199.141L750.46,484.581L727.72,329.361C721.09,279.542 714.75,236.132 708.7,199.141L502.92,199.141L502.92,810.141L641.94,810.141L642.44,406.711L700.95,810.141L799.97,810.141L855.48,397.731L855.98,810.141L994.56,810.141L994.56,199.141L787.22,199.141Z"/>
                <path id="path40" d="M994.56,199.141L994.56,810.141L855.98,810.141L855.48,397.731L799.97,810.141L700.95,810.141L642.44,406.711L641.94,810.141L502.92,810.141L502.92,199.141L708.7,199.141C714.75,236.131 721.09,279.541 727.72,329.361L750.46,484.581L787.22,199.141L994.56,199.141M1008.56,185.141L994.56,185.141L787.22,185.141L774.907,185.141L773.334,197.353L749.567,381.906L741.585,327.425C734.97,277.72 728.554,233.799 722.516,196.882L720.596,185.142L708.7,185.142L502.92,185.142L488.92,185.142L488.92,824.142L655.922,824.142L655.94,810.16L656.201,599.139L687.095,812.152L688.834,824.143L812.212,824.143L813.845,812.011L841.731,604.83L841.98,810.16L841.997,824.143L1008.56,824.143L1008.56,810.143L1008.56,199.143L1008.56,185.141Z" style="fill:rgb(251,251,237);fill-opacity:0.3;fill-rule:nonzero;"/>
            </g>
            <g id="g42">
                <path id="path44" d="M1242.77,309.101C1249.04,312.731 1253.06,318.461 1254.81,326.231C1256.56,334.021 1257.45,351.721 1257.45,379.341L1257.45,616.211C1257.45,656.891 1254.81,681.801 1249.54,690.961C1244.27,700.141 1230.22,704.711 1207.41,704.711L1207.41,303.641C1224.7,303.641 1236.5,305.461 1242.77,309.101ZM1241.13,810.141C1279.15,810.141 1307.61,808.072 1326.51,803.921C1345.4,799.781 1361.26,792.49 1374.12,782.071C1386.96,771.65 1395.96,757.211 1401.13,738.73C1406.29,720.281 1409.36,683.65 1409.36,628.89L1409.36,414.31C1409.36,356.52 1407.1,317.77 1403.58,298.05C1400.05,278.34 1391.24,260.44 1377.13,244.36C1363.03,228.28 1342.43,216.73 1315.35,209.7C1288.28,202.67 1244.08,199.14 1167.26,199.14L1048.84,199.14L1048.84,810.14L1241.13,810.14L1241.13,810.141Z"/>
                <path id="path48" d="M1167.26,199.141C1244.08,199.141 1288.28,202.671 1315.35,209.701C1342.43,216.731 1363.03,228.281 1377.13,244.361C1391.24,260.441 1400.05,278.341 1403.58,298.051C1407.1,317.771 1409.36,356.521 1409.36,414.311L1409.36,628.891C1409.36,683.651 1406.29,720.282 1401.13,738.731C1395.96,757.211 1386.96,771.651 1374.12,782.072C1361.26,792.491 1345.4,799.782 1326.51,803.922C1307.61,808.072 1279.15,810.142 1241.13,810.142L1048.84,810.142L1048.84,199.142L1167.26,199.142M1207.41,704.711C1230.22,704.711 1244.27,700.141 1249.54,690.961C1254.81,681.801 1257.45,656.891 1257.45,616.211L1257.45,379.341C1257.45,351.721 1256.56,334.021 1254.81,326.231C1253.06,318.461 1249.04,312.731 1242.77,309.101C1236.5,305.461 1224.7,303.641 1207.41,303.641L1207.41,704.711M1167.26,185.141L1048.84,185.141L1034.84,185.141L1034.84,824.141L1241.13,824.141C1280.55,824.141 1309.45,822 1329.51,817.596C1350.43,813.012 1368.41,804.72 1382.93,792.95C1398.02,780.708 1408.67,763.738 1414.61,742.503C1420.42,721.752 1423.36,683.527 1423.36,628.892L1423.36,414.312C1423.36,358.627 1421.29,317.575 1417.36,295.592C1413.39,273.405 1403.39,253.065 1387.65,235.128C1371.74,216.984 1348.6,203.87 1318.87,196.151C1289.55,188.536 1242.79,185.141 1167.26,185.141ZM1221.41,689.939L1221.41,318.169C1231.11,319.006 1234.7,320.603 1235.74,321.208C1237.67,322.325 1240.01,324.246 1241.15,329.307C1242.01,333.121 1243.45,344.705 1243.45,379.341L1243.45,616.211C1243.45,669.344 1238.82,681.515 1237.4,683.979C1237.09,684.522 1234.49,688.29 1221.41,689.939Z" style="fill:rgb(251,251,237);fill-opacity:0.3;fill-rule:nonzero;"/>
            </g>
            <g id="g50">
                <path id="path52" d="M1669.85,661.881C1669.85,691.451 1668.38,710.131 1665.45,717.901C1662.51,725.681 1649.73,729.591 1640.04,729.591C1630.59,729.591 1624.29,725.841 1621.09,718.311C1617.9,710.791 1616.32,693.622 1616.32,666.782L1616.32,505.311C1616.32,477.471 1617.72,460.121 1620.53,453.211C1623.33,446.331 1629.45,442.871 1638.89,442.871C1648.57,442.871 1661.56,446.801 1664.88,454.701C1668.19,462.601 1669.85,479.471 1669.85,505.291L1669.85,661.881ZM1463.42,199.141L1463.42,810.141L1606.31,810.141L1616.2,771.211C1629.12,786.861 1643.37,798.601 1658.96,806.421C1674.54,814.24 1697.81,818.141 1715.8,818.141C1740.89,818.141 1762.55,811.551 1780.8,798.391C1799.04,785.221 1810.64,769.651 1815.59,751.711C1820.53,733.761 1823,706.49 1823,669.851L1823,498.431C1823,461.541 1822.17,437.461 1820.53,426.171C1818.87,414.881 1814.01,403.341 1805.91,391.551C1797.8,379.771 1786.03,370.611 1770.57,364.081C1755.12,357.541 1736.9,354.281 1715.88,354.281C1697.64,354.281 1674.26,357.911 1658.68,365.111C1643.1,372.311 1628.98,383.241 1616.32,397.891L1616.32,199.141L1463.42,199.141Z"/>
                <path id="path56" d="M1616.32,199.141L1616.32,397.891C1628.98,383.241 1643.1,372.311 1658.68,365.111C1674.26,357.911 1697.64,354.281 1715.88,354.281C1736.9,354.281 1755.12,357.541 1770.57,364.081C1786.03,370.611 1797.8,379.771 1805.91,391.551C1814.01,403.341 1818.87,414.881 1820.53,426.171C1822.17,437.461 1823,461.541 1823,498.431L1823,669.851C1823,706.491 1820.53,733.761 1815.59,751.711C1810.64,769.65 1799.04,785.221 1780.8,798.391C1762.55,811.551 1740.89,818.141 1715.8,818.141C1697.81,818.141 1674.54,814.241 1658.96,806.421C1643.37,798.601 1629.12,786.861 1616.2,771.211L1606.31,810.141L1463.42,810.141L1463.42,199.141L1616.32,199.141M1640.04,729.591C1649.73,729.591 1662.51,725.681 1665.45,717.901C1668.38,710.131 1669.85,691.452 1669.85,661.881L1669.85,505.291C1669.85,479.471 1668.19,462.601 1664.88,454.701C1661.56,446.801 1648.57,442.871 1638.89,442.871C1629.45,442.871 1623.33,446.331 1620.53,453.211C1617.72,460.121 1616.32,477.471 1616.32,505.311L1616.32,666.782C1616.32,693.622 1617.9,710.792 1621.09,718.311C1624.29,725.841 1630.59,729.591 1640.04,729.591M1630.32,185.141L1616.32,185.141L1463.42,185.141L1449.42,185.141L1449.42,824.141L1617.2,824.141L1619.88,813.588L1623.58,799.036C1632.75,807.158 1642.48,813.815 1652.68,818.934C1672.1,828.681 1698.82,832.14 1715.8,832.14C1743.76,832.14 1768.38,824.605 1788.99,809.745C1809.8,794.72 1823.29,776.448 1829.09,755.434C1834.41,736.077 1837,708.085 1837,669.85L1837,498.43C1837,460.566 1836.14,436.271 1834.38,424.157C1832.41,410.741 1826.72,397.111 1817.45,383.622C1807.82,369.641 1793.89,358.73 1776.02,351.183C1758.93,343.95 1738.69,340.28 1715.88,340.28C1698.88,340.28 1672.17,343.454 1652.81,352.401C1645,356.011 1637.49,360.478 1630.32,365.773L1630.32,199.141L1630.32,185.141ZM1640.04,715.591C1635.14,715.591 1634.58,714.252 1633.98,712.835C1633.12,710.82 1630.32,701.518 1630.32,666.781L1630.32,505.311C1630.32,469.116 1632.75,460.318 1633.5,458.484C1633.76,457.847 1633.92,457.755 1634.1,457.657C1634.42,457.472 1635.74,456.871 1638.89,456.871C1645.18,456.871 1650.72,459.192 1652.13,460.524C1653.36,463.798 1655.85,474.272 1655.85,505.292L1655.85,661.882C1655.85,697.192 1653.71,708.707 1652.57,712.325C1651.03,713.56 1645.83,715.591 1640.04,715.591Z" style="fill:rgb(251,251,237);fill-opacity:0.3;fill-rule:nonzero;"/>
            </g>
        </g>
    </g>
    <defs>
        <radialGradient id="_Radial1" cx="0" cy="0" r="1" gradientUnits="userSpaceOnUse" gradientTransform="matrix(847.355,0,0,847.355,1032.27,541.585)"><stop offset="0" style="stop-color:rgb(252,240,110);stop-opacity:1"/><stop offset="0.99" style="stop-color:rgb(219,165,6);stop-opacity:1"/><stop offset="1" style="stop-color:rgb(219,165,6);stop-opacity:1"/></radialGradient>
        <radialGradient id="_Radial2" cx="0" cy="0" r="1" gradientUnits="userSpaceOnUse" gradientTransform="matrix(794.369,0,0,692.531,1042,45.8333)"><stop offset="0" style="stop-color:white;stop-opacity:0.4"/><stop offset="1" style="stop-color:white;stop-opacity:0"/></radialGradient>
    </defs>
</svg>
